<svg width="1280" height="420" viewBox="0 0 1280 420" fill="none" xmlns="http://www.w3.org/2000/svg" role="img" aria-labelledby="title desc">
  <title id="title">dukememory</title>
  <desc id="desc">Project-scoped local memory engine for Codex and AI agents</desc>
  <defs>
    <linearGradient id="bg" x1="0" y1="0" x2="1280" y2="420" gradientUnits="userSpaceOnUse">
      <stop stop-color="#111827"/>
      <stop offset="0.52" stop-color="#0F3D3E"/>
      <stop offset="1" stop-color="#1F2937"/>
    </linearGradient>
    <linearGradient id="node" x1="0" y1="0" x2="1" y2="1">
      <stop stop-color="#A7F3D0"/>
      <stop offset="1" stop-color="#38BDF8"/>
    </linearGradient>
    <filter id="soft" x="-20%" y="-20%" width="140%" height="140%">
      <feDropShadow dx="0" dy="18" stdDeviation="18" flood-color="#020617" flood-opacity="0.28"/>
    </filter>
  </defs>
  <rect width="1280" height="420" rx="32" fill="url(#bg)"/>
  <path d="M0 324C112 278 212 279 318 314C433 352 548 375 671 327C801 276 910 200 1032 223C1139 243 1210 297 1280 281V420H0V324Z" fill="#0B1220" opacity="0.45"/>
  <g opacity="0.18">
    <path d="M104 78H1176" stroke="#E5E7EB"/>
    <path d="M104 142H1176" stroke="#E5E7EB"/>
    <path d="M104 206H1176" stroke="#E5E7EB"/>
    <path d="M104 270H1176" stroke="#E5E7EB"/>
    <path d="M104 334H1176" stroke="#E5E7EB"/>
    <path d="M168 48V372" stroke="#E5E7EB"/>
    <path d="M360 48V372" stroke="#E5E7EB"/>
    <path d="M552 48V372" stroke="#E5E7EB"/>
    <path d="M744 48V372" stroke="#E5E7EB"/>
    <path d="M936 48V372" stroke="#E5E7EB"/>
    <path d="M1128 48V372" stroke="#E5E7EB"/>
  </g>
  <g filter="url(#soft)">
    <path d="M860 132L1010 89L1128 166L1092 296L926 322L814 233Z" stroke="#A7F3D0" stroke-width="4" stroke-linecap="round" stroke-linejoin="round" opacity="0.9"/>
    <path d="M860 132L926 322M1010 89L926 322M1010 89L1092 296M1128 166L814 233" stroke="#38BDF8" stroke-width="3" stroke-linecap="round" opacity="0.58"/>
    <circle cx="860" cy="132" r="18" fill="url(#node)"/>
    <circle cx="1010" cy="89" r="18" fill="url(#node)"/>
    <circle cx="1128" cy="166" r="18" fill="url(#node)"/>
    <circle cx="1092" cy="296" r="18" fill="url(#node)"/>
    <circle cx="926" cy="322" r="18" fill="url(#node)"/>
    <circle cx="814" cy="233" r="18" fill="url(#node)"/>
  </g>
  <g filter="url(#soft)">
    <rect x="88" y="74" width="600" height="272" rx="24" fill="#F8FAFC" fill-opacity="0.96"/>
    <text x="128" y="154" fill="#0F172A" font-family="Inter, ui-sans-serif, system-ui, -apple-system, BlinkMacSystemFont, Segoe UI, sans-serif" font-size="64" font-weight="800">dukememory</text>
    <text x="132" y="205" fill="#155E75" font-family="Inter, ui-sans-serif, system-ui, -apple-system, BlinkMacSystemFont, Segoe UI, sans-serif" font-size="26" font-weight="700">project-scoped memory for local agents</text>
    <text x="132" y="256" fill="#334155" font-family="Inter, ui-sans-serif, system-ui, -apple-system, BlinkMacSystemFont, Segoe UI, sans-serif" font-size="22">PostgreSQL + pgvector</text>
    <text x="132" y="291" fill="#334155" font-family="Inter, ui-sans-serif, system-ui, -apple-system, BlinkMacSystemFont, Segoe UI, sans-serif" font-size="22">Ollama embeddings</text>
    <text x="402" y="256" fill="#334155" font-family="Inter, ui-sans-serif, system-ui, -apple-system, BlinkMacSystemFont, Segoe UI, sans-serif" font-size="22">MCP tools</text>
    <text x="402" y="291" fill="#334155" font-family="Inter, ui-sans-serif, system-ui, -apple-system, BlinkMacSystemFont, Segoe UI, sans-serif" font-size="22">Code graph context</text>
  </g>
</svg>
