<svg width="1280" height="760" viewBox="0 0 1280 760" fill="none" xmlns="http://www.w3.org/2000/svg" role="img" aria-labelledby="title desc">
  <title id="title">dukememory native viewer preview</title>
  <desc id="desc">Illustrative preview of a local memory and code graph viewer</desc>
  <rect width="1280" height="760" rx="30" fill="#0B1220"/>
  <rect x="34" y="34" width="1212" height="692" rx="22" fill="#111827" stroke="#243244"/>
  <rect x="34" y="34" width="260" height="692" rx="22" fill="#0F172A"/>
  <rect x="318" y="58" width="612" height="64" rx="16" fill="#172033"/>
  <rect x="958" y="58" width="248" height="646" rx="16" fill="#172033"/>
  <text x="64" y="86" fill="#E5E7EB" font-family="Inter, ui-sans-serif, system-ui" font-size="26" font-weight="760">dukememory</text>
  <text x="64" y="132" fill="#94A3B8" font-family="Inter, ui-sans-serif, system-ui" font-size="18">project vaults</text>
  <rect x="62" y="166" width="196" height="38" rx="10" fill="#0F766E"/>
  <text x="82" y="191" fill="#F8FAFC" font-family="Inter, ui-sans-serif, system-ui" font-size="16">current project</text>
  <rect x="62" y="222" width="196" height="38" rx="10" fill="#1E293B"/>
  <text x="82" y="247" fill="#CBD5E1" font-family="Inter, ui-sans-serif, system-ui" font-size="16">memory</text>
  <rect x="62" y="274" width="196" height="38" rx="10" fill="#1E293B"/>
  <text x="82" y="299" fill="#CBD5E1" font-family="Inter, ui-sans-serif, system-ui" font-size="16">code</text>
  <rect x="62" y="326" width="196" height="38" rx="10" fill="#1E293B"/>
  <text x="82" y="351" fill="#CBD5E1" font-family="Inter, ui-sans-serif, system-ui" font-size="16">relations</text>
  <text x="348" y="98" fill="#F8FAFC" font-family="Inter, ui-sans-serif, system-ui" font-size="24" font-weight="760">Memory and code graph</text>
  <text x="1000" y="100" fill="#F8FAFC" font-family="Inter, ui-sans-serif, system-ui" font-size="22" font-weight="760">Selection</text>
  <text x="1000" y="144" fill="#94A3B8" font-family="Inter, ui-sans-serif, system-ui" font-size="16">project-scoped context</text>
  <g stroke="#38BDF8" stroke-width="3" opacity="0.72">
    <path d="M506 292L642 202L796 298"/>
    <path d="M506 292L610 430L796 298"/>
    <path d="M642 202L610 430"/>
    <path d="M610 430L770 520"/>
    <path d="M796 298L770 520"/>
  </g>
  <g>
    <rect x="438" y="254" width="136" height="78" rx="14" fill="#ECFDF5"/>
    <text x="468" y="286" fill="#064E3B" font-family="Inter, ui-sans-serif, system-ui" font-size="16" font-weight="700">decision</text>
    <text x="462" y="312" fill="#065F46" font-family="Inter, ui-sans-serif, system-ui" font-size="14">active memory</text>
    <rect x="578" y="164" width="128" height="76" rx="14" fill="#EFF6FF"/>
    <text x="610" y="196" fill="#1E3A8A" font-family="Inter, ui-sans-serif, system-ui" font-size="16" font-weight="700">symbol</text>
    <text x="600" y="222" fill="#1D4ED8" font-family="Inter, ui-sans-serif, system-ui" font-size="14">code index</text>
    <rect x="724" y="260" width="144" height="78" rx="14" fill="#F8FAFC"/>
    <text x="758" y="292" fill="#334155" font-family="Inter, ui-sans-serif, system-ui" font-size="16" font-weight="700">graph fact</text>
    <text x="750" y="318" fill="#64748B" font-family="Inter, ui-sans-serif, system-ui" font-size="14">temporal</text>
    <rect x="540" y="392" width="140" height="78" rx="14" fill="#FEFCE8"/>
    <text x="570" y="424" fill="#713F12" font-family="Inter, ui-sans-serif, system-ui" font-size="16" font-weight="700">task trace</text>
    <text x="564" y="450" fill="#A16207" font-family="Inter, ui-sans-serif, system-ui" font-size="14">audit trail</text>
    <rect x="700" y="482" width="140" height="78" rx="14" fill="#FDF2F8"/>
    <text x="736" y="514" fill="#831843" font-family="Inter, ui-sans-serif, system-ui" font-size="16" font-weight="700">feedback</text>
    <text x="728" y="540" fill="#BE185D" font-family="Inter, ui-sans-serif, system-ui" font-size="14">eval case</text>
  </g>
  <rect x="998" y="182" width="170" height="34" rx="8" fill="#0F766E"/>
  <text x="1020" y="205" fill="#F8FAFC" font-family="Inter, ui-sans-serif, system-ui" font-size="15">project scoped</text>
  <rect x="998" y="238" width="170" height="34" rx="8" fill="#1E293B"/>
  <text x="1020" y="261" fill="#CBD5E1" font-family="Inter, ui-sans-serif, system-ui" font-size="15">hybrid retrieval</text>
  <rect x="998" y="294" width="170" height="34" rx="8" fill="#1E293B"/>
  <text x="1020" y="317" fill="#CBD5E1" font-family="Inter, ui-sans-serif, system-ui" font-size="15">pending review</text>
  <rect x="998" y="350" width="170" height="34" rx="8" fill="#1E293B"/>
  <text x="1020" y="373" fill="#CBD5E1" font-family="Inter, ui-sans-serif, system-ui" font-size="15">code impact</text>
</svg>
