<svg width="1280" height="640" viewBox="0 0 1280 640" fill="none" xmlns="http://www.w3.org/2000/svg" role="img" aria-labelledby="title desc">
  <title id="title">dukememory social preview</title>
  <desc id="desc">Private-by-default memory for AI coding agents</desc>
  <defs>
    <linearGradient id="bg" x1="0" y1="0" x2="1280" y2="640" gradientUnits="userSpaceOnUse">
      <stop stop-color="#020617"/>
      <stop offset="0.48" stop-color="#0F3D3E"/>
      <stop offset="1" stop-color="#111827"/>
    </linearGradient>
    <linearGradient id="accent" x1="0" y1="0" x2="1" y2="1">
      <stop stop-color="#A7F3D0"/>
      <stop offset="1" stop-color="#38BDF8"/>
    </linearGradient>
    <filter id="shadow" x="-20%" y="-20%" width="140%" height="140%">
      <feDropShadow dx="0" dy="24" stdDeviation="24" flood-color="#020617" flood-opacity="0.35"/>
    </filter>
  </defs>
  <rect width="1280" height="640" rx="36" fill="url(#bg)"/>
  <g opacity="0.18">
    <path d="M120 112H1160" stroke="#E5E7EB"/>
    <path d="M120 192H1160" stroke="#E5E7EB"/>
    <path d="M120 272H1160" stroke="#E5E7EB"/>
    <path d="M120 352H1160" stroke="#E5E7EB"/>
    <path d="M120 432H1160" stroke="#E5E7EB"/>
    <path d="M120 512H1160" stroke="#E5E7EB"/>
    <path d="M200 72V568" stroke="#E5E7EB"/>
    <path d="M420 72V568" stroke="#E5E7EB"/>
    <path d="M640 72V568" stroke="#E5E7EB"/>
    <path d="M860 72V568" stroke="#E5E7EB"/>
    <path d="M1080 72V568" stroke="#E5E7EB"/>
  </g>
  <g filter="url(#shadow)">
    <rect x="96" y="96" width="704" height="448" rx="28" fill="#F8FAFC"/>
    <text x="146" y="204" fill="#0F172A" font-family="Inter, ui-sans-serif, system-ui, -apple-system, BlinkMacSystemFont, Segoe UI, sans-serif" font-size="76" font-weight="850">dukememory</text>
    <text x="150" y="265" fill="#0F766E" font-family="Inter, ui-sans-serif, system-ui, -apple-system, BlinkMacSystemFont, Segoe UI, sans-serif" font-size="30" font-weight="760">private-by-default agent memory</text>
    <text x="150" y="340" fill="#334155" font-family="Inter, ui-sans-serif, system-ui, -apple-system, BlinkMacSystemFont, Segoe UI, sans-serif" font-size="25">MCP server for Codex and local coding agents</text>
    <text x="150" y="386" fill="#334155" font-family="Inter, ui-sans-serif, system-ui, -apple-system, BlinkMacSystemFont, Segoe UI, sans-serif" font-size="25">PostgreSQL + pgvector + Ollama</text>
    <text x="150" y="432" fill="#334155" font-family="Inter, ui-sans-serif, system-ui, -apple-system, BlinkMacSystemFont, Segoe UI, sans-serif" font-size="25">Semantic retrieval and code graph context</text>
  </g>
  <g filter="url(#shadow)">
    <path d="M900 176L1034 124L1156 210L1118 384L946 430L850 300Z" stroke="url(#accent)" stroke-width="6" stroke-linecap="round" stroke-linejoin="round"/>
    <path d="M900 176L946 430M1034 124L946 430M1034 124L1118 384M1156 210L850 300M900 176L1118 384" stroke="#38BDF8" stroke-width="4" stroke-linecap="round" opacity="0.58"/>
    <circle cx="900" cy="176" r="23" fill="url(#accent)"/>
    <circle cx="1034" cy="124" r="23" fill="url(#accent)"/>
    <circle cx="1156" cy="210" r="23" fill="url(#accent)"/>
    <circle cx="1118" cy="384" r="23" fill="url(#accent)"/>
    <circle cx="946" cy="430" r="23" fill="url(#accent)"/>
    <circle cx="850" cy="300" r="23" fill="url(#accent)"/>
  </g>
</svg>
